<svg width="56" height="64" viewBox="0 0 56 64" fill="none" xmlns="http://www.w3.org/2000/svg">
<path d="M26 1.15441C27.2376 0.439903 28.7624 0.439903 30 1.15441L53.7129 14.8448C54.9504 15.5593 55.7127 16.8798 55.7129 18.3087V45.6905C55.7128 47.1195 54.9504 48.4399 53.7129 49.1544L30 62.8448C28.7624 63.5594 27.2376 63.5594 26 62.8448L2.28711 49.1544C1.0496 48.4399 0.287168 47.1195 0.287109 45.6905V18.3087C0.287277 16.8798 1.04964 15.5593 2.28711 14.8448L26 1.15441ZM28.4512 13.9269C28.1518 13.0056 26.8482 13.0056 26.5488 13.9269L23.1221 24.4737C22.9882 24.8858 22.6041 25.1652 22.1709 25.1652H11.0811C10.1124 25.1652 9.70964 26.4043 10.4932 26.9737L19.4648 33.4923C19.8153 33.7469 19.962 34.1984 19.8281 34.6105L16.4014 45.1573C16.102 46.0787 17.1567 46.8449 17.9404 46.2755L26.9121 39.757C27.2626 39.5023 27.7374 39.5023 28.0879 39.757L37.0596 46.2755C37.8433 46.8449 38.898 46.0787 38.5986 45.1573L35.1719 34.6105C35.038 34.1984 35.1847 33.7469 35.5352 33.4923L44.5068 26.9737C45.2904 26.4043 44.8876 25.1652 43.9189 25.1652H32.8291C32.3959 25.1652 32.0118 24.8858 31.8779 24.4737L28.4512 13.9269Z" fill="#0B63AF"/>
</svg>
